<?xml version="1.0" encoding="UTF-8" standalone="no"?>
<!-- Created with Inkscape (http://www.inkscape.org/) -->

<svg
   xmlns:dc="http://purl.org/dc/elements/1.1/"
   xmlns:cc="http://creativecommons.org/ns#"
   xmlns:rdf="http://www.w3.org/1999/02/22-rdf-syntax-ns#"
   xmlns:svg="http://www.w3.org/2000/svg"
   xmlns="http://www.w3.org/2000/svg"
   xmlns:sodipodi="http://sodipodi.sourceforge.net/DTD/sodipodi-0.dtd"
   xmlns:inkscape="http://www.inkscape.org/namespaces/inkscape"
   id="svg2"
   version="1.1"
   inkscape:version="0.48.4 r9939"
   width="541.97473"
   height="765"
   xml:space="preserve"
   sodipodi:docname="html5.eps"><metadata
     id="metadata8"><rdf:RDF><cc:Work
         rdf:about=""><dc:format>image/svg+xml</dc:format><dc:type
           rdf:resource="http://purl.org/dc/dcmitype/StillImage" /><dc:title></dc:title></cc:Work></rdf:RDF></metadata><defs
     id="defs6" /><sodipodi:namedview
     pagecolor="#ffffff"
     bordercolor="#666666"
     borderopacity="1"
     objecttolerance="10"
     gridtolerance="10"
     guidetolerance="10"
     inkscape:pageopacity="0"
     inkscape:pageshadow="2"
     inkscape:window-width="1366"
     inkscape:window-height="702"
     id="namedview4"
     showgrid="false"
     fit-margin-top="0"
     fit-margin-left="0"
     fit-margin-right="0"
     fit-margin-bottom="0"
     inkscape:zoom="0.27991105"
     inkscape:cx="292.04349"
     inkscape:cy="343.4375"
     inkscape:window-x="0"
     inkscape:window-y="27"
     inkscape:window-maximized="1"
     inkscape:current-layer="g10" /><g
     id="g10"
     inkscape:groupmode="layer"
     inkscape:label="ink_ext_XXXXXX"
     transform="matrix(1.25,0,0,-1.25,-42.13775,843.125)"><g
       id="g12"
       transform="scale(0.1,0.1)"><path
         d="m 731.68,1116.55 -394.578,4425.73 4335.798,0 L 4277.89,1117.25 2502.34,625 731.68,1116.55"
         style="fill:#e53d20;fill-opacity:1;fill-rule:nonzero;stroke:none"
         id="path14"
         inkscape:connector-curvature="0" /><path
         d="m 2505,1001.25 1434.73,397.76 337.56,3781.4 -1772.29,0 0,-4179.16"
         style="fill:#f15123;fill-opacity:1;fill-rule:nonzero;stroke:none"
         id="path16"
         inkscape:connector-curvature="0" /><path
         d="m 2505,3538.96 -718.26,0 -49.61,555.84 767.87,0 0,542.8 -1361.08,0 12.99,-145.62 133.41,-1495.8 1214.68,0 0,542.78"
         style="fill:#eeeded;fill-opacity:1;fill-rule:nonzero;stroke:none"
         id="path18"
         inkscape:connector-curvature="0" /><path
         d="m 2505,2129.27 -2.38,-0.64 -604.51,163.24 -38.66,432.9 -544.88,0 76.05,-852.27 1111.88,-308.66 2.5,0.69 0,564.74"
         style="fill:#eeeded;fill-opacity:1;fill-rule:nonzero;stroke:none"
         id="path20"
         inkscape:connector-curvature="0" /><path
         d="m 740.496,6745 275.854,0 0,-272.53 252.32,0 0,272.53 275.86,0 0,-825.29 -275.85,0 0,276.35 -252.32,0 0,-276.35 -275.84,0 0,825.29 -0.024,0"
         style="fill:#100f0d;fill-opacity:1;fill-rule:nonzero;stroke:none"
         id="path22"
         inkscape:connector-curvature="0" /><path
         d="m 1907.27,6471.32 -242.84,0 0,273.68 761.65,0 0,-273.68 -242.95,0 0,-551.61 -275.84,0 0,551.61 -0.02,0"
         style="fill:#100f0d;fill-opacity:1;fill-rule:nonzero;stroke:none"
         id="path24"
         inkscape:connector-curvature="0" /><path
         d="m 2546.96,6745 287.63,0 176.93,-289.98 176.75,289.98 287.74,0 0,-825.29 -274.71,0 0,409.06 -189.78,-293.44 -4.74,0 -189.91,293.44 0,-409.06 -269.91,0 0,825.29"
         style="fill:#100f0d;fill-opacity:1;fill-rule:nonzero;stroke:none"
         id="path26"
         inkscape:connector-curvature="0" /><path
         d="m 3613.29,6745 275.93,0 0,-552.5 387.91,0 0,-272.79 -663.84,0 0,825.29"
         style="fill:#100f0d;fill-opacity:1;fill-rule:nonzero;stroke:none"
         id="path28"
         inkscape:connector-curvature="0" /><path
         d="m 2503.12,3538.96 0,-542.78 668.39,0 -63,-703.97 -605.39,-163.4 0,-564.71 1112.76,308.4 8.16,91.7 127.56,1429.01 13.24,145.75 -1261.72,0"
         style="fill:#ffffff;fill-opacity:1;fill-rule:nonzero;stroke:none"
         id="path30"
         inkscape:connector-curvature="0" /><path
         d="m 2503.12,4637.6 0,-542.8 1309.37,0 1.74,0 10.89,122.01 24.73,275.17 12.98,145.62 -1359.71,0"
         style="fill:#ffffff;fill-opacity:1;fill-rule:nonzero;stroke:none"
         id="path32"
         inkscape:connector-curvature="0" /><g
         id="g34"
         transform="scale(10,10)" /><g
         id="g40"
         transform="scale(10,10)" /></g></g></svg>