<?xml version="1.0" encoding="UTF-8" standalone="no"?>
<svg
   xmlns:dc="http://purl.org/dc/elements/1.1/"
   xmlns:cc="http://creativecommons.org/ns#"
   xmlns:rdf="http://www.w3.org/1999/02/22-rdf-syntax-ns#"
   xmlns:svg="http://www.w3.org/2000/svg"
   xmlns="http://www.w3.org/2000/svg"
   xmlns:sodipodi="http://sodipodi.sourceforge.net/DTD/sodipodi-0.dtd"
   xmlns:inkscape="http://www.inkscape.org/namespaces/inkscape"
   version="1.0"
   width="371px"
   height="503px"
   viewBox="0 0 3710 5030"
   preserveAspectRatio="xMidYMid meet"
   id="svg2"
   inkscape:version="0.48.4 r9939"
   sodipodi:docname="java.svg">
  <metadata
     id="metadata30">
    <rdf:RDF>
      <cc:Work
         rdf:about="">
        <dc:format>image/svg+xml</dc:format>
        <dc:type
           rdf:resource="http://purl.org/dc/dcmitype/StillImage" />
      </cc:Work>
    </rdf:RDF>
  </metadata>
  <defs
     id="defs28" />
  <sodipodi:namedview
     pagecolor="#ffffff"
     bordercolor="#666666"
     borderopacity="1"
     objecttolerance="10"
     gridtolerance="10"
     guidetolerance="10"
     inkscape:pageopacity="0"
     inkscape:pageshadow="2"
     inkscape:window-width="1366"
     inkscape:window-height="702"
     id="namedview26"
     showgrid="false"
     inkscape:zoom="0.46918489"
     inkscape:cx="-192.81568"
     inkscape:cy="251.5"
     inkscape:window-x="0"
     inkscape:window-y="27"
     inkscape:window-maximized="1"
     inkscape:current-layer="svg2" />
  <g
     fill="#010002"
     stroke="none"
     id="g4">
    <path
       d="M1585 5018 c-226 -10 -424 -30 -630 -64 -282 -46 -276 -64 20 -53 116 4 460 7 765 8 712 1 968 -13 1228 -65 234 -47 502 -151 637 -248 63 -45 76 -34 39 34 -60 111 -209 214 -397 274 -307 99 -985 146 -1662 114z"
       id="path6" />
    <path
       d="M1051 4779 c-473 -19 -810 -76 -950 -161 -69 -42 -93 -74 -99 -136 -4 -44 -1 -52 27 -84 41 -47 111 -76 249 -104 150 -30 388 -52 404 -36 13 13 13 13 -92 38 -152 34 -290 96 -290 128 0 68 338 137 860 177 207 16 784 16 990 1 395 -30 766 -84 1003 -146 205 -53 251 -79 247 -139 -4 -39 0 -41 24 -18 42 40 51 74 30 118 -25 50 -83 92 -190 137 -427 179 -1259 264 -2213 225z"
       id="path8" />
    <path
       d="M1625 4303 c-229 -12 -483 -59 -587 -108 -122 -57 -171 -155 -113 -223 35 -42 71 -60 153 -77 73 -15 91 -9 70 24 -18 29 -1 53 48 67 112 32 282 48 524 49 233 0 254 -2 446 -34 l201 -34 89 53 c49 30 109 67 133 83 41 28 43 31 25 44 -34 25 -261 92 -395 117 -205 38 -390 50 -594 39z"
       id="path10" />
    <path
       d="M1290 3739 c-161 -20 -340 -63 -415 -102 -125 -63 -153 -130 -81 -190 49 -41 205 -105 220 -89 4 3 -8 18 -24 34 -100 91 53 137 482 145 342 7 589 -16 911 -83 l118 -25 102 73 c56 40 102 78 102 83 0 18 -408 97 -695 136 -176 23 -594 34 -720 18z"
       id="path12" />
    <path
       d="M2937 3683 c-3 -5 40 -42 96 -83 55 -41 148 -122 207 -180 208 -206 260 -338 179 -464 -48 -76 -186 -139 -336 -154 -87 -9 -91 -28 -11 -60 153 -60 306 -72 410 -33 109 42 187 144 213 277 24 125 15 206 -30 294 -46 90 -207 215 -373 292 -140 65 -344 128 -355 111z"
       id="path14" />
    <path
       d="M1085 3253 c-480 -40 -724 -148 -683 -301 28 -104 306 -182 695 -194 104 -3 137 9 71 26 -109 28 -248 71 -292 90 -59 26 -116 71 -116 92 0 57 527 94 1063 75 424 -16 684 -40 910 -85 60 -12 110 -19 112 -15 7 11 -26 35 -105 78 -219 118 -546 199 -925 231 -109 9 -634 11 -730 3z"
       id="path16" />
    <path
       d="M2076 2881 c-3 -5 3 -30 14 -56 50 -117 65 -266 34 -328 -9 -18 -40 -61 -68 -97 -159 -198 -215 -338 -217 -533 -1 -95 0 -101 37 -175 91 -185 389 -406 783 -582 63 -28 118 -47 123 -42 4 4 -57 60 -137 125 -362 296 -485 450 -485 610 0 73 22 127 105 253 68 105 98 164 119 233 46 157 -12 318 -178 489 -81 84 -122 117 -130 103z"
       id="path18" />
    <path
       d="M1578 2549 c-172 -173 -258 -287 -329 -434 -60 -127 -79 -200 -79 -312 0 -145 42 -251 164 -413 111 -148 231 -254 536 -470 231 -165 327 -258 379 -371 65 -138 82 -214 88 -381 6 -171 14 -181 61 -85 116 237 117 471 2 686 -76 141 -207 277 -510 526 -266 219 -352 309 -386 402 -50 141 41 540 206 898 27 58 37 92 31 98 -7 7 -62 -42 -163 -144z"
       id="path20" />
  </g>
  <g
     fill="#ffffff"
     stroke="none"
     id="g22"
     style="fill:#d30c0c;fill-opacity:0">
    <path
       d="M1 4758 c0 -150 3 -266 6 -258 25 63 112 122 238 159 390 114 1407 145 2155 65 415 -44 817 -145 974 -244 59 -38 84 -87 65 -132 l-12 -30 -12 29 c-25 57 -79 83 -277 134 -591 149 -1528 196 -2273 113 -369 -41 -596 -107 -583 -171 6 -31 77 -75 175 -110 l98 -34 -82 6 c-111 9 -296 47 -361 75 -28 12 -66 38 -82 57 l-30 34 0 -2226 0 -2225 1855 0 1855 0 -1 1533 c-1 842 -3 1523 -6 1512 -2 -11 -8 -29 -13 -40 -5 -11 -16 -43 -25 -71 -18 -57 -66 -131 -107 -164 -98 -76 -258 -85 -443 -23 l-80 27 60 8 c168 22 296 89 349 182 51 88 40 172 -36 287 -52 79 -225 254 -336 338 -45 35 -81 66 -78 68 7 8 207 -63 298 -105 191 -88 313 -190 372 -311 19 -39 37 -79 39 -89 3 -9 5 409 6 931 l1 947 -732 -2 c-403 -1 -692 -3 -643 -5 50 -2 99 -7 110 -12 11 -5 81 -14 155 -20 185 -15 458 -56 571 -85 159 -42 290 -104 375 -178 35 -31 94 -112 94 -130 0 -4 -21 7 -47 26 -130 92 -395 194 -625 240 -281 57 -562 69 -1403 64 -668 -4 -670 -4 -560 14 143 23 346 46 465 54 52 3 104 10 115 15 11 5 61 10 110 12 50 2 -312 4 -802 5 l-893 2 1 -272z m1950 -479 c73 -6 194 -21 268 -35 144 -27 385 -100 376 -114 -3 -5 -56 -39 -117 -76 l-111 -67 -201 34 c-191 32 -213 34 -446 34 -250 -1 -403 -15 -528 -51 -59 -17 -85 -50 -65 -83 11 -17 8 -17 -40 -9 -122 22 -174 66 -164 139 7 52 42 90 115 124 171 81 596 129 913 104z m-121 -559 c228 -21 792 -114 837 -139 7 -3 -25 -32 -78 -69 l-89 -63 -118 25 c-290 61 -534 86 -837 86 -321 0 -515 -26 -575 -77 -34 -28 -37 -48 -15 -80 l15 -22 -42 15 c-101 34 -167 91 -153 133 25 80 236 158 515 190 108 12 406 13 540 1z m-15 -490 c282 -24 566 -82 752 -153 100 -39 217 -96 211 -103 -3 -2 -56 5 -119 15 -350 60 -965 91 -1401 72 -326 -15 -476 -38 -508 -76 -35 -42 56 -110 224 -168 l111 -38 -100 6 c-116 6 -277 29 -361 50 -79 20 -181 71 -195 97 -16 30 -13 85 6 114 54 83 285 154 595 183 134 12 642 13 785 1z m372 -452 c165 -170 223 -332 177 -489 -21 -69 -51 -128 -119 -233 -110 -168 -129 -252 -84 -368 42 -110 189 -271 439 -477 69 -57 127 -105 129 -107 17 -15 -86 31 -216 97 -321 161 -541 336 -617 491 -37 74 -38 80 -37 175 2 195 58 335 217 533 80 101 87 119 82 219 -3 57 -13 110 -30 159 -14 39 -23 72 -19 72 4 0 39 -33 78 -72z m-523 -243 c-142 -328 -222 -685 -185 -821 27 -98 127 -206 410 -439 236 -193 315 -267 395 -367 201 -251 236 -516 104 -804 l-22 -49 -6 125 c-8 145 -32 243 -91 369 -34 72 -54 99 -132 175 -55 54 -163 142 -267 216 -209 149 -291 212 -383 299 -125 118 -245 297 -281 420 -21 70 -21 215 0 295 23 89 102 248 175 351 56 78 314 355 331 355 3 0 -18 -56 -48 -125z"
       id="path24"
       style="fill:#d30c0c;fill-opacity:0" />
  </g>
</svg>
