<?xml version="1.0" encoding="UTF-8" standalone="no"?>
<!-- Generator: Adobe Illustrator 14.0.0, SVG Export Plug-In . SVG Version: 6.00 Build 43363)  -->

<svg
   xmlns:dc="http://purl.org/dc/elements/1.1/"
   xmlns:cc="http://creativecommons.org/ns#"
   xmlns:rdf="http://www.w3.org/1999/02/22-rdf-syntax-ns#"
   xmlns:svg="http://www.w3.org/2000/svg"
   xmlns="http://www.w3.org/2000/svg"
   xmlns:sodipodi="http://sodipodi.sourceforge.net/DTD/sodipodi-0.dtd"
   xmlns:inkscape="http://www.inkscape.org/namespaces/inkscape"
   version="1.1"
   id="Layer_1"
   x="0px"
   y="0px"
   width="83.419563"
   height="110.68524"
   viewBox="0 0 83.419563 110.68524"
   enable-background="new 0 0 270.207 110.686"
   xml:space="preserve"
   inkscape:version="0.48.4 r9939"
   sodipodi:docname="maya.svg"><metadata
     id="metadata47"><rdf:RDF><cc:Work
         rdf:about=""><dc:format>image/svg+xml</dc:format><dc:type
           rdf:resource="http://purl.org/dc/dcmitype/StillImage" /></cc:Work></rdf:RDF></metadata><defs
     id="defs45" /><sodipodi:namedview
     pagecolor="#ffffff"
     bordercolor="#666666"
     borderopacity="1"
     objecttolerance="10"
     gridtolerance="10"
     guidetolerance="10"
     inkscape:pageopacity="0"
     inkscape:pageshadow="2"
     inkscape:window-width="640"
     inkscape:window-height="480"
     id="namedview43"
     showgrid="false"
     fit-margin-top="0"
     fit-margin-left="0"
     fit-margin-right="0"
     fit-margin-bottom="0"
     inkscape:zoom="1.1213625"
     inkscape:cx="181.444"
     inkscape:cy="37.240657"
     inkscape:window-x="0"
     inkscape:window-y="27"
     inkscape:window-maximized="0"
     inkscape:current-layer="g3" /><g
     id="g3"
     transform="translate(-4.0166917e-6,-1.7066545e-5)"><g
       id="g35"><path
         d="M 76.174,103.784 C 64.207,80.003 61.295,79.785 61.295,79.785 c 0,0 -6.67,-5.949 -14.964,-0.9 0,0 -8.563,3.924 -9.282,11.857 0,0 -0.71,8.063 1.995,10.586 0,0 4.939,6.381 15.581,3.877 3.064,-0.722 -5.589,-7.933 -5.589,-7.933 1.081,-0.54 2.885,-0.54 2.885,-0.54 10.817,0.723 14.422,4.868 14.422,4.868 -8.654,15.865 -31.909,6.129 -31.909,6.129 C 20.913,101.06 18.351,87.357 18.351,87.357 16.186,76.359 20.733,68.067 20.733,68.067 24.698,58.692 23.616,56.71 23.616,56.71 17.488,61.397 6.309,64.643 6.309,64.643 5.228,33.634 18.388,25.34 18.388,25.34 25.6,25.52 36.596,41.025 36.596,41.025 32.991,15.785 0,0.1 0,0.1 c 0,0 32.451,-2.704 59.314,20.012 0,0 14.782,12.078 22.175,34.073 1.002,2.985 5.587,27.764 -4.327,51.02 M 20.172,31.519 c 0,0 -8.285,11.971 -7.979,24.703 0,0 11.813,-4.449 14.883,-6.904 0,0 3.375,6.442 1.38,13.654 l -1.687,4.603 c 0,0 -8.592,19.947 4.449,32.068 0,0 -3.05,-15.727 2.608,-25.778 L 40.73,60.057 c 0,0 8.744,-14.882 0.46,-33.139 0,0 6.612,3.146 8.592,12.274 1.881,8.674 2.763,15.341 -8.898,34.368 0,0 4.726,-3.948 6.443,-5.064 4.424,-2.875 13.348,-7.059 20.405,5.368 0,0 5.83,9.361 6.904,12.581 0,0 5.217,-18.715 -2.915,-36.822 0,0 -5.01,-15.859 -16.876,-26.849 C 52.773,20.858 44.105,12.648 28.763,7.893 L 18.789,5.284 c 0,0 12.12,9.358 16.109,18.412 0,0 6.291,14.882 2.916,23.779 l -1.382,2.608 c 0.003,0.001 -8.741,-13.501 -16.26,-18.564 z"
         id="path37"
         inkscape:connector-curvature="0" /><path
         d="M 40.119,16.177 C 66.662,29.525 72.337,65.12 72.337,65.12 l 0.461,7.518 -4.144,-7.518 C 63.591,36.276 40.424,21.087 40.424,21.087 l -3.682,-5.216 3.377,0.306 z"
         id="path39"
         inkscape:connector-curvature="0" /><polygon
         points="20.787,39.804 25.697,43.335 16.183,51.313 "
         id="polygon41" /></g></g></svg>